<svg width="209" height="151" viewBox="0 0 209 151" fill="none" xmlns="http://www.w3.org/2000/svg">
<path d="M105.4 0.000488281V43.6709L61.7293 29.4633V22.1303C61.7293 9.88689 71.6157 0.000488281 83.8592 0.000488281H105.4Z" fill="#0EB800"/>
<path d="M149.07 22.1298V29.4628L105.4 43.6704V0H126.94C139.184 0 149.07 9.8864 149.07 22.1298Z" fill="#0EA200"/>
<path d="M149.07 29.4626V65.1454C149.07 74.2461 143.636 82.0374 135.779 85.442L105.4 43.6048L149.07 29.4626Z" fill="#0E8600"/>
<path d="M135.779 85.5076C133.095 86.6861 130.083 87.3408 126.94 87.3408H83.9247C80.782 87.3408 77.7702 86.6861 75.0858 85.5076L105.465 43.6704L135.779 85.5076Z" fill="#005A00"/>
<path d="M105.4 43.6703L75.0204 85.5074C67.2291 82.1028 61.7294 74.3116 61.7294 65.2108V29.4626L105.4 43.6703Z" fill="#007100"/>
<path d="M105.4 15.1243L78.294 34.8316L88.6387 66.7169H122.161L132.506 34.8316L105.4 15.1243Z" fill="white"/>
<path d="M6.98329 150.066H0V105.08H6.98329V150.066Z" fill="white"/>
<path d="M14.4654 150.066V117.27H20.8875V122.757H21.0434C21.9579 120.845 23.288 119.359 25.0339 118.299C26.7797 117.239 28.8892 116.709 31.3625 116.709C34.958 116.709 37.7534 117.789 39.7487 119.951C41.7439 122.092 42.7415 125.053 42.7415 128.836V150.066H35.9764V130.145C35.9764 127.651 35.3841 125.76 34.1994 124.471C33.0356 123.162 31.3001 122.507 28.9931 122.507C26.6238 122.507 24.7325 123.276 23.3192 124.814C21.9059 126.352 21.1993 128.399 21.1993 130.956V150.066H14.4654Z" fill="white"/>
<path d="M88.8188 131.361C88.8188 137.451 87.1041 142.221 83.6748 145.671C80.2663 149.1 75.5173 150.815 69.4277 150.815C62.9847 150.815 57.872 148.715 54.0893 144.517C50.3275 140.298 48.4466 134.583 48.4466 127.371C48.4466 120.283 50.3171 114.672 54.0582 110.536C57.82 106.4 62.912 104.332 69.3341 104.332C74.343 104.332 78.5828 105.693 82.0537 108.416C85.5453 111.139 87.6861 114.745 88.4758 119.234H81.3055C80.4741 116.449 79.0089 114.287 76.9098 112.749C74.8106 111.211 72.2958 110.442 69.3653 110.442C65.0631 110.442 61.6858 111.939 59.2333 114.932C56.8016 117.904 55.5858 122.029 55.5858 127.308C55.5858 132.691 56.8328 136.942 59.3268 140.059C61.8209 143.156 65.2086 144.704 69.49 144.704C73.1271 144.704 76.0992 143.644 78.4062 141.524C80.7132 139.384 81.8874 136.609 81.929 133.2V132.421H70.3006V126.778H88.8188V131.361Z" fill="white"/>
<path d="M106.183 145.297C108.553 145.297 110.538 144.579 112.138 143.145C113.759 141.691 114.57 139.903 114.57 137.783V135.196L106.495 135.695C104.479 135.84 102.92 136.339 101.819 137.191C100.738 138.022 100.198 139.145 100.198 140.558C100.198 141.992 100.738 143.145 101.819 144.018C102.92 144.87 104.375 145.297 106.183 145.297ZM104.313 150.628C101.091 150.628 98.4624 149.713 96.4256 147.884C94.4096 146.055 93.4016 143.675 93.4016 140.745C93.4016 137.877 94.4615 135.601 96.5814 133.918C98.7014 132.213 101.705 131.257 105.591 131.049L114.57 130.519V127.994C114.57 126.165 113.988 124.742 112.824 123.723C111.66 122.684 110.049 122.164 107.992 122.164C106.08 122.164 104.521 122.59 103.315 123.443C102.131 124.295 101.382 125.469 101.071 126.965H94.7109C94.898 123.931 96.2073 121.458 98.639 119.546C101.071 117.634 104.271 116.677 108.241 116.677C112.211 116.677 115.37 117.654 117.718 119.608C120.088 121.562 121.272 124.18 121.272 127.464V150.066H114.819V144.673H114.663C113.728 146.481 112.304 147.926 110.392 149.006C108.501 150.087 106.474 150.628 104.313 150.628Z" fill="white"/>
<path d="M127.819 150.066V117.27H134.241V122.788H134.397C135.145 120.938 136.34 119.463 137.982 118.361C139.624 117.259 141.536 116.709 143.719 116.709C145.984 116.709 147.907 117.27 149.486 118.392C151.086 119.514 152.219 121.094 152.884 123.131H153.04C153.892 121.136 155.222 119.566 157.031 118.423C158.86 117.28 160.938 116.709 163.266 116.709C166.508 116.709 169.106 117.696 171.06 119.67C173.013 121.645 173.99 124.264 173.99 127.527V150.066H167.225V129.148C167.225 127.028 166.674 125.386 165.573 124.222C164.492 123.058 162.954 122.476 160.959 122.476C158.963 122.476 157.332 123.141 156.064 124.471C154.817 125.802 154.194 127.506 154.194 129.584V150.066H147.584V128.649C147.584 126.758 147.023 125.261 145.901 124.16C144.779 123.037 143.272 122.476 141.381 122.476C139.385 122.476 137.743 123.172 136.455 124.565C135.187 125.937 134.553 127.682 134.553 129.802V150.066H127.819Z" fill="white"/>
<path d="M199.928 124.471C198.452 122.892 196.551 122.102 194.223 122.102C191.895 122.102 189.962 122.902 188.424 124.503C186.886 126.082 186.034 128.129 185.868 130.644H202.266C202.183 128.108 201.404 126.051 199.928 124.471ZM202.235 140.433H208.626C208.148 143.447 206.61 145.91 204.012 147.822C201.414 149.734 198.244 150.69 194.503 150.69C189.702 150.69 185.92 149.183 183.156 146.169C180.412 143.135 179.04 139.02 179.04 133.824C179.04 128.67 180.412 124.523 183.156 121.385C185.92 118.247 189.609 116.677 194.223 116.677C198.754 116.677 202.349 118.164 205.01 121.136C207.67 124.087 209 128.057 209 133.045V135.352H185.837V135.757C185.837 138.625 186.637 140.922 188.237 142.647C189.838 144.372 191.978 145.234 194.659 145.234C196.551 145.234 198.172 144.798 199.523 143.925C200.874 143.052 201.778 141.888 202.235 140.433Z" fill="white"/>
</svg>
